<svg xmlns="http://www.w3.org/2000/svg" xmlns:xlink="http://www.w3.org/1999/xlink" xmlns:serif="http://www.serif.com/" width="100%" height="100%" viewBox="0 0 668 154" xml:space="preserve" style="fill-rule:evenodd;clip-rule:evenodd;stroke-linejoin:round;stroke-miterlimit:2;">    <g>        <path d="M247.606,74.172C247.606,43.519 225.543,29.708 202.975,29.708C173.164,29.708 155.985,49.245 155.985,76.866C155.985,103.14 172.491,124.024 203.48,124.024C228.575,124.024 242.385,108.529 245.922,91.687L219.143,91.687C216.954,98.256 211.733,102.466 203.312,102.466C192.027,102.466 184.449,94.887 182.596,83.603L247.101,83.603C247.438,81.077 247.606,76.698 247.606,74.172ZM203.48,50.593C213.417,50.593 220.154,56.656 221.164,67.435L183.27,67.435C185.291,57.835 190.68,50.593 203.48,50.593Z" style="fill-rule:nonzero;"></path>        <path d="M287.691,124.024C303.017,124.024 312.785,111.898 317.164,103.14C317.838,101.793 318.68,99.772 320.701,100.614C322.891,101.456 321.206,104.824 319.859,107.519C318.512,110.214 317.67,113.077 317.67,117.119L317.67,121.329L344.617,121.329L344.617,32.403L317.67,32.403L317.67,66.593C317.67,87.14 307.733,101.119 296.785,101.119C287.185,101.119 282.638,95.561 282.638,75.519L282.638,32.403L255.691,32.403L255.691,86.298C255.691,111.561 268.491,124.024 287.691,124.024Z" style="fill-rule:nonzero;"></path>        <path d="M384.196,51.435C381.67,50.929 382.68,47.898 384.027,45.203C385.375,42.508 386.385,39.477 386.385,36.445L386.385,32.403L359.438,32.403L359.438,121.329L386.385,121.329L386.385,86.803C386.385,70.996 390.268,61.882 400.986,58.418C411.549,54.911 418.678,45.033 418.678,33.904C418.722,32.156 418.722,31.056 418.722,31.056C397.333,31.056 392.28,37.287 387.059,49.077C386.554,50.256 385.712,51.772 384.196,51.435Z" style="fill-rule:nonzero;"></path>        <path d="M424.253,55.112C412.203,61.539 406.819,75.929 411.69,88.688C417.717,104.476 424.729,122.845 424.729,122.845L423.719,125.372C420.687,132.782 418.161,132.108 405.361,132.108L397.95,132.108L397.95,153.666L419.508,153.666C435.003,153.666 443.424,147.435 449.487,131.603L487.213,32.403L458.582,32.403L443.256,85.119C442.245,88.487 442.077,91.519 441.74,94.551C441.571,96.235 441.403,98.087 439.045,98.087C436.687,98.087 436.35,96.235 436.35,94.551C436.35,91.519 436.013,88.487 435.003,85.119L425.582,54.403C425.582,54.403 425.09,54.665 424.253,55.112Z" style="fill-rule:nonzero;"></path>        <path d="M581.754,121.329L542.006,69.624L579.059,32.403L546.722,32.403L516.406,65.245C515.227,66.593 513.88,67.603 512.364,66.424C510.68,65.245 511.691,63.393 512.87,62.045C515.396,59.182 517.08,56.151 517.08,49.751L517.08,0.066L490.133,0.066L490.133,121.329L517.08,121.329L517.08,94.551L524.491,87.14L549.417,121.329L581.754,121.329Z" style="fill-rule:nonzero;"></path>        <path d="M579.059,97.582C579.059,112.403 592.027,124.024 610.049,124.024C624.87,124.024 634.806,116.108 640.364,105.161C641.038,103.982 641.712,101.961 643.901,102.972C645.754,103.814 644.238,106.508 642.891,109.372C641.712,111.729 641.038,114.087 641.038,116.782L641.038,121.329L667.985,121.329L667.985,72.151C667.985,36.445 647.606,29.708 626.554,29.708C606.68,29.708 584.785,38.298 581.754,62.045L608.364,62.045C609.712,55.308 613.754,49.919 625.88,49.919C638.175,49.919 640.87,56.319 641.038,61.372C641.206,68.951 629.922,67.94 614.091,68.951C594.891,70.129 579.059,77.54 579.059,97.582ZM641.038,78.214C640.87,96.572 628.406,103.814 620.322,105.161C613.08,106.34 606.006,103.14 606.006,95.729C606.006,88.151 611.564,85.287 617.796,84.614C630.427,83.098 636.659,82.761 641.038,78.214Z" style="fill-rule:nonzero;"></path>    </g>    <g>        <path d="M50.763,103.568C50.763,117.229 39.502,128.322 25.629,128.322L-0,128.322L-0,103.324C-0,89.532 11.372,78.329 25.382,78.329L45.827,78.329C48.551,78.329 50.763,80.508 50.763,83.191L50.763,103.568ZM44.405,92.171L44.405,84.921C42.929,84.921 41.727,86.104 41.727,87.557L41.727,94.808C43.206,94.808 44.405,93.628 44.405,92.171Z"></path>        <path d="M104.666,125.953L94.703,133.025C94.258,133.342 93.997,133.849 93.997,134.386L93.997,136.136C93.997,136.37 94.09,136.598 94.261,136.763C94.428,136.931 94.659,137.023 94.897,137.023L104.666,137.023L104.666,153.666L79.037,153.666C65.164,153.666 53.899,142.576 53.899,128.912L53.899,83.233C53.899,80.528 56.132,78.329 58.879,78.329L79.284,78.329C93.291,78.329 104.666,89.532 104.666,103.324L104.666,125.953ZM60.258,98.763C60.258,100.22 61.46,101.399 62.936,101.399L62.936,87.557C62.936,86.104 61.737,84.921 60.258,84.921L60.258,98.763Z" style="fill:rgb(255,0,28);"></path>        <path d="M53.899,62.76C53.899,47.91 66.145,35.854 81.226,35.854L93.997,35.854L93.997,47.699C93.997,62.952 81.42,75.337 65.928,75.337L57.902,75.337C55.693,75.337 53.899,73.57 53.899,71.399L53.899,62.76ZM60.258,61.495L60.258,68.745C61.737,68.745 62.936,67.566 62.936,66.109L62.936,58.858C61.46,58.858 60.258,60.038 60.258,61.495Z"></path>        <path d="M106.399,4.726C106.399,14.952 114.828,23.252 125.21,23.252C114.828,23.252 106.399,31.551 106.399,41.777C106.399,31.551 97.97,23.252 87.587,23.252C97.97,23.252 106.399,14.952 106.399,4.726Z"></path>        <path d="M-0,42.785L6.021,36.853L-0,30.924L6.021,24.995L-0,19.066L6.021,13.137L-0,7.208L-0,-0L25.629,-0C39.502,-0 50.763,11.093 50.763,24.754L50.763,70.265C50.763,73.063 48.454,75.337 45.613,75.337L25.382,75.337C11.372,75.337 -0,64.138 -0,50.342L-0,42.785ZM44.405,54.903C44.405,53.447 43.206,52.267 41.727,52.267L41.727,66.109C41.727,67.566 42.929,68.745 44.405,68.745L44.405,54.903Z" style="fill:rgb(255,0,28);"></path>        <path d="M123.685,33.979C123.685,38.282 127.232,41.774 131.6,41.774C127.232,41.774 123.685,45.266 123.685,49.568C123.685,45.266 120.139,41.774 115.771,41.774C120.139,41.774 123.685,38.282 123.685,33.979Z"></path>    </g></svg>