<?xml version="1.0" encoding="utf-8"?>
<!-- Generator: Adobe Illustrator 28.2.0, SVG Export Plug-In . SVG Version: 6.00 Build 0)  -->
<svg version="1.1" id="Layer_1" xmlns:serif="http://www.serif.com/"
	 xmlns="http://www.w3.org/2000/svg" xmlns:xlink="http://www.w3.org/1999/xlink" x="0px" y="0px" viewBox="0 0 1920 1080"
	 style="enable-background:new 0 0 1920 1080;" xml:space="preserve">
<style type="text/css">
	.st0{fill:#FFFFFF;}
	.st1{fill-rule:evenodd;clip-rule:evenodd;fill:#FFFFFF;}
	.st2{fill-rule:evenodd;clip-rule:evenodd;fill:#FF001C;}
</style>
<g transform="matrix(1,0,0,1,-10135,-6711.01)">
	<g transform="matrix(1,0,0,1,9027.75,5577.78)">
		<g transform="matrix(1.11906,0,0,1.11906,611.869,126.91)">
			<g transform="matrix(1,0,0,1,-9.59726,105.819)">
				<path class="st0" d="M1080.9,1298.9c0-79.2-57-114.9-115.3-114.9c-77,0-121.4,50.5-121.4,121.8c0,67.9,42.6,121.8,122.7,121.8
					c64.8,0,100.5-40,109.6-83.5h-69.2c-5.7,17-19.1,27.8-40.9,27.8c-29.1,0-48.7-19.6-53.5-48.7h166.6
					C1080.5,1316.7,1080.9,1305.4,1080.9,1298.9z M966.9,1238c25.7,0,43.1,15.7,45.7,43.5h-97.9C919.9,1256.7,933.8,1238,966.9,1238
					z"/>
			</g>
			<g transform="matrix(1,0,0,1,-9.59726,105.819)">
				<path class="st0" d="M1184.4,1427.7c39.6,0,64.8-31.3,76.1-53.9c1.7-3.5,3.9-8.7,9.1-6.5c5.7,2.2,1.3,10.9-2.2,17.8
					c-3.5,7-5.7,14.4-5.7,24.8v10.9h69.6V1191h-69.6v88.3c0,53.1-25.7,89.2-54,89.2c-24.8,0-36.5-14.4-36.5-66.1V1191h-69.6v139.2
					C1101.8,1395.5,1134.8,1427.7,1184.4,1427.7z"/>
			</g>
			<g transform="matrix(1,0,0,1,-9.59726,105.819)">
				<path class="st0" d="M1433.7,1240.2c-6.5-1.3-3.9-9.1-0.4-16.1c3.5-7,6.1-14.8,6.1-22.6V1191h-69.6v229.7h69.6v-89.2
					c0-48,13.9-72.1,54-76.7c16.8-2,29.5-16.3,29.5-33.3c0-16.9,0-34,0-34c-55.3,0-68.3,16.1-81.8,46.5
					C1439.8,1237.1,1437.6,1241,1433.7,1240.2z"/>
			</g>
			<g transform="matrix(1,0,0,1,-60.3973,105.819)">
				<path class="st0" d="M1581,1253.4c-27.1,14.5-39.3,46.9-28.3,75.6c16.1,42.2,36.5,95.6,36.5,95.6l-2.6,6.5
					c-7.8,19.1-14.4,17.4-47.4,17.4H1520v55.7h55.7c40,0,61.8-16.1,77.4-57l97.5-256.2h-74l-39.6,136.2c-2.6,8.7-3,16.5-3.9,24.4
					c-0.4,4.4-0.9,9.1-7,9.1c-6.1,0-7-4.8-7-9.1c0-7.8-0.9-15.7-3.5-24.4l-24.3-79.3C1591.4,1247.8,1587.2,1250.1,1581,1253.4z"/>
			</g>
			<g transform="matrix(1,0,0,1,-62.3973,105.819)">
				<path class="st0" d="M1996.8,1420.7l-102.7-133.6l95.7-96.1h-83.5l-78.3,84.8c-3,3.5-6.5,6.1-10.4,3c-4.4-3-1.7-7.8,1.3-11.3
					c6.5-7.4,10.9-15.2,10.9-31.8v-128.3h-69.6v313.2h69.6v-69.2l19.1-19.1l64.4,88.3H1996.8z"/>
			</g>
			<g transform="matrix(1,0,0,1,-62.3973,105.819)">
				<path class="st0" d="M1989.9,1359.4c0,38.3,33.5,68.3,80,68.3c38.3,0,64-20.4,78.3-48.7c1.7-3,3.5-8.3,9.1-5.7
					c4.8,2.2,0.9,9.1-2.6,16.5c-3,6.1-4.8,12.2-4.8,19.1v11.7h69.6v-127c0-92.2-52.6-109.6-107-109.6c-51.3,0-107.9,22.2-115.7,83.5
					h68.7c3.5-17.4,13.9-31.3,45.2-31.3c31.8,0,38.7,16.5,39.2,29.6c0.4,19.6-28.7,17-69.6,19.6
					C2030.8,1288.5,1989.9,1307.6,1989.9,1359.4z M2150,1309.3c-0.4,47.4-32.6,66.1-53.5,69.6c-18.7,3-37-5.2-37-24.4
					c0-19.6,14.4-27,30.5-28.7C2122.6,1322,2138.6,1321.1,2150,1309.3z"/>
			</g>
		</g>
	</g>
	<g transform="matrix(1,0,0,1,9027.75,5577.78)">
		<g transform="matrix(1.44545,0,0,1.42341,-783.138,119.165)">
			<g transform="matrix(0.532106,0,0,0.532106,595.154,-312.784)">
				<path class="st1" d="M1559.3,2756.5c0,60.1-48.8,108.9-108.9,108.9h-111.1v-110c0-60.7,49.3-110,110-110h88.6
					c11.8,0,21.4,9.6,21.4,21.4V2756.5z M1531.8,2706.3v-31.9c-6.4,0-11.6,5.2-11.6,11.6v31.9
					C1526.6,2717.9,1531.8,2712.7,1531.8,2706.3z"/>
			</g>
			<g transform="matrix(0.532106,0,0,0.532106,595.154,-312.784)">
				<path class="st2" d="M1792.9,2855l-43.2,31.1c-1.9,1.4-3.1,3.6-3.1,6v7.7c0,1,0.4,2,1.1,2.8c0.7,0.7,1.7,1.1,2.8,1.1h42.3v73.2
					h-111.1c-60.1,0-108.9-48.8-108.9-108.9v-201c0-11.9,9.7-21.6,21.6-21.6h88.4c60.7,0,110,49.3,110,110V2855z M1600.5,2735.3
					c0,6.4,5.2,11.6,11.6,11.6V2686c0-6.4-5.2-11.6-11.6-11.6V2735.3z"/>
			</g>
			<g transform="matrix(0.532106,0,0,0.532106,595.154,-312.784)">
				<path class="st1" d="M1572.9,2576.9c0-65.3,53.1-118.4,118.4-118.4h55.3v52.1c0,67.1-54.5,121.6-121.6,121.6h-34.8
					c-9.6,0-17.3-7.8-17.3-17.3V2576.9z M1600.5,2571.3v31.9c6.4,0,11.6-5.2,11.6-11.6v-31.9
					C1605.7,2559.7,1600.5,2564.9,1600.5,2571.3z"/>
			</g>
			<g transform="matrix(1.47414,0,0,1.47414,800.845,-2404.01)">
				<path class="st1" d="M510.3,2256.6c0,16.2,13.2,29.4,29.4,29.4c-16.2,0-29.4,13.2-29.4,29.4c0-16.2-13.2-29.4-29.4-29.4
					C497.2,2286,510.3,2272.8,510.3,2256.6z"/>
			</g>
			<g transform="matrix(0.532106,0,0,0.532106,595.154,-312.784)">
				<path class="st2" d="M1339.4,2489l26.1-26.1l-26.1-26.1l26.1-26.1l-26.1-26.1l26.1-26.1l-26.1-26.1v-31.7h111.1
					c60.1,0,108.9,48.8,108.9,108.9v200.3c0,12.3-10,22.3-22.3,22.3h-87.7c-60.7,0-110-49.3-110-110V2489z M1531.8,2542.3
					c0-6.4-5.2-11.6-11.6-11.6v60.9c0,6.4,5.2,11.6,11.6,11.6V2542.3z"/>
			</g>
			<g transform="matrix(0.620224,0,0,0.620224,1220.01,-547.124)">
				<path class="st1" d="M601.4,2480c0,16.2,13.2,29.4,29.4,29.4c-16.2,0-29.4,13.2-29.4,29.4c0-16.2-13.2-29.4-29.4-29.4
					C588.2,2509.4,601.4,2496.2,601.4,2480z"/>
			</g>
		</g>
	</g>
</g>
</svg>
